<mxfile host="app.diagrams.net" agent="Mozilla/5.0 (Windows NT 10.0; Win64; x64) AppleWebKit/537.36 (KHTML, like Gecko) Chrome/131.0.0.0 Safari/537.36" version="25.0.1">
  <diagram name="Page-1" id="s6RYuwPW1rAyxglArAj3">
    <mxGraphModel dx="1155" dy="619" grid="1" gridSize="10" guides="1" tooltips="1" connect="1" arrows="1" fold="1" page="1" pageScale="1" pageWidth="850" pageHeight="1100" math="0" shadow="0">
      <root>
        <mxCell id="0" />
        <mxCell id="1" parent="0" />
        <mxCell id="EH_pXnjPwOsGgoBDvtnK-1" style="edgeStyle=orthogonalEdgeStyle;rounded=0;orthogonalLoop=1;jettySize=auto;html=1;" edge="1" parent="1" source="EH_pXnjPwOsGgoBDvtnK-2">
          <mxGeometry relative="1" as="geometry">
            <mxPoint x="400" y="180" as="targetPoint" />
          </mxGeometry>
        </mxCell>
        <mxCell id="EH_pXnjPwOsGgoBDvtnK-2" value="MULAI" style="ellipse;whiteSpace=wrap;html=1;" vertex="1" parent="1">
          <mxGeometry x="340" y="60" width="120" height="80" as="geometry" />
        </mxCell>
        <mxCell id="EH_pXnjPwOsGgoBDvtnK-3" style="edgeStyle=orthogonalEdgeStyle;rounded=0;orthogonalLoop=1;jettySize=auto;html=1;entryX=0.5;entryY=0;entryDx=0;entryDy=0;" edge="1" parent="1" source="EH_pXnjPwOsGgoBDvtnK-13" target="EH_pXnjPwOsGgoBDvtnK-9">
          <mxGeometry relative="1" as="geometry" />
        </mxCell>
        <mxCell id="EH_pXnjPwOsGgoBDvtnK-6" value="MASUKKAN :&lt;div&gt;NIK, NAMA LENGKAP, KECAMATAN, DESA,ALAMAT, GENDER, TANGGAL LAHIR, PENDIDIKAN TERAKHIR&lt;/div&gt;" style="shape=parallelogram;perimeter=parallelogramPerimeter;whiteSpace=wrap;html=1;fixedSize=1;" vertex="1" parent="1">
          <mxGeometry x="260" y="181" width="280" height="99" as="geometry" />
        </mxCell>
        <mxCell id="EH_pXnjPwOsGgoBDvtnK-18" style="edgeStyle=orthogonalEdgeStyle;rounded=0;orthogonalLoop=1;jettySize=auto;html=1;exitX=0.5;exitY=1;exitDx=0;exitDy=0;entryX=0.5;entryY=0;entryDx=0;entryDy=0;" edge="1" parent="1" source="EH_pXnjPwOsGgoBDvtnK-9" target="EH_pXnjPwOsGgoBDvtnK-16">
          <mxGeometry relative="1" as="geometry" />
        </mxCell>
        <mxCell id="EH_pXnjPwOsGgoBDvtnK-21" value="YA" style="edgeLabel;html=1;align=center;verticalAlign=middle;resizable=0;points=[];" vertex="1" connectable="0" parent="EH_pXnjPwOsGgoBDvtnK-18">
          <mxGeometry x="-0.1289" relative="1" as="geometry">
            <mxPoint as="offset" />
          </mxGeometry>
        </mxCell>
        <mxCell id="EH_pXnjPwOsGgoBDvtnK-9" value="DATA VALID" style="rhombus;whiteSpace=wrap;html=1;" vertex="1" parent="1">
          <mxGeometry x="335" y="469.99999999999994" width="130" height="120" as="geometry" />
        </mxCell>
        <mxCell id="EH_pXnjPwOsGgoBDvtnK-10" value="SELESAI" style="ellipse;whiteSpace=wrap;html=1;" vertex="1" parent="1">
          <mxGeometry x="340" y="1000" width="120" height="80" as="geometry" />
        </mxCell>
        <mxCell id="EH_pXnjPwOsGgoBDvtnK-14" value="" style="edgeStyle=orthogonalEdgeStyle;rounded=0;orthogonalLoop=1;jettySize=auto;html=1;entryX=0.5;entryY=0;entryDx=0;entryDy=0;" edge="1" parent="1" source="EH_pXnjPwOsGgoBDvtnK-6" target="EH_pXnjPwOsGgoBDvtnK-13">
          <mxGeometry relative="1" as="geometry">
            <mxPoint x="400" y="241" as="sourcePoint" />
            <mxPoint x="400" y="376" as="targetPoint" />
          </mxGeometry>
        </mxCell>
        <mxCell id="EH_pXnjPwOsGgoBDvtnK-13" value="APLIKASI MELAKUKAN PROSES VALIDASI DATA" style="rounded=1;whiteSpace=wrap;html=1;" vertex="1" parent="1">
          <mxGeometry x="290" y="350" width="220" height="60" as="geometry" />
        </mxCell>
        <mxCell id="EH_pXnjPwOsGgoBDvtnK-20" style="edgeStyle=orthogonalEdgeStyle;rounded=0;orthogonalLoop=1;jettySize=auto;html=1;exitX=1;exitY=0.5;exitDx=0;exitDy=0;" edge="1" parent="1" source="EH_pXnjPwOsGgoBDvtnK-16">
          <mxGeometry relative="1" as="geometry">
            <mxPoint x="560" y="530" as="targetPoint" />
          </mxGeometry>
        </mxCell>
        <mxCell id="EH_pXnjPwOsGgoBDvtnK-23" value="TIDAK" style="edgeLabel;html=1;align=center;verticalAlign=middle;resizable=0;points=[];" vertex="1" connectable="0" parent="EH_pXnjPwOsGgoBDvtnK-20">
          <mxGeometry x="-0.6594" y="-1" relative="1" as="geometry">
            <mxPoint as="offset" />
          </mxGeometry>
        </mxCell>
        <mxCell id="EH_pXnjPwOsGgoBDvtnK-24" style="edgeStyle=orthogonalEdgeStyle;rounded=0;orthogonalLoop=1;jettySize=auto;html=1;entryX=0.5;entryY=0;entryDx=0;entryDy=0;" edge="1" parent="1" source="EH_pXnjPwOsGgoBDvtnK-16">
          <mxGeometry relative="1" as="geometry">
            <mxPoint x="400" y="800" as="targetPoint" />
          </mxGeometry>
        </mxCell>
        <mxCell id="EH_pXnjPwOsGgoBDvtnK-25" value="YA" style="edgeLabel;html=1;align=center;verticalAlign=middle;resizable=0;points=[];" vertex="1" connectable="0" parent="EH_pXnjPwOsGgoBDvtnK-24">
          <mxGeometry x="-0.1986" y="-1" relative="1" as="geometry">
            <mxPoint as="offset" />
          </mxGeometry>
        </mxCell>
        <mxCell id="EH_pXnjPwOsGgoBDvtnK-16" value="SIMPAN DATA?" style="rhombus;whiteSpace=wrap;html=1;" vertex="1" parent="1">
          <mxGeometry x="335" y="640" width="130" height="120" as="geometry" />
        </mxCell>
        <mxCell id="EH_pXnjPwOsGgoBDvtnK-19" style="edgeStyle=orthogonalEdgeStyle;rounded=0;orthogonalLoop=1;jettySize=auto;html=1;exitX=1;exitY=0.5;exitDx=0;exitDy=0;entryX=0.969;entryY=0.614;entryDx=0;entryDy=0;entryPerimeter=0;" edge="1" parent="1" source="EH_pXnjPwOsGgoBDvtnK-9" target="EH_pXnjPwOsGgoBDvtnK-6">
          <mxGeometry relative="1" as="geometry">
            <Array as="points">
              <mxPoint x="560" y="530" />
              <mxPoint x="560" y="242" />
            </Array>
          </mxGeometry>
        </mxCell>
        <mxCell id="EH_pXnjPwOsGgoBDvtnK-22" value="TIDAK" style="edgeLabel;html=1;align=center;verticalAlign=middle;resizable=0;points=[];" vertex="1" connectable="0" parent="EH_pXnjPwOsGgoBDvtnK-19">
          <mxGeometry x="-0.7966" y="-1" relative="1" as="geometry">
            <mxPoint as="offset" />
          </mxGeometry>
        </mxCell>
        <mxCell id="EH_pXnjPwOsGgoBDvtnK-28" style="edgeStyle=orthogonalEdgeStyle;rounded=0;orthogonalLoop=1;jettySize=auto;html=1;exitX=0.5;exitY=1;exitDx=0;exitDy=0;entryX=0.5;entryY=0;entryDx=0;entryDy=0;" edge="1" parent="1" source="EH_pXnjPwOsGgoBDvtnK-26" target="EH_pXnjPwOsGgoBDvtnK-27">
          <mxGeometry relative="1" as="geometry" />
        </mxCell>
        <mxCell id="EH_pXnjPwOsGgoBDvtnK-26" value="PROSES SIMPAN DATA" style="rounded=1;whiteSpace=wrap;html=1;" vertex="1" parent="1">
          <mxGeometry x="320" y="800" width="160" height="60" as="geometry" />
        </mxCell>
        <mxCell id="EH_pXnjPwOsGgoBDvtnK-29" style="edgeStyle=orthogonalEdgeStyle;rounded=0;orthogonalLoop=1;jettySize=auto;html=1;exitX=0.5;exitY=1;exitDx=0;exitDy=0;entryX=0.5;entryY=0;entryDx=0;entryDy=0;" edge="1" parent="1" source="EH_pXnjPwOsGgoBDvtnK-27" target="EH_pXnjPwOsGgoBDvtnK-10">
          <mxGeometry relative="1" as="geometry" />
        </mxCell>
        <mxCell id="EH_pXnjPwOsGgoBDvtnK-27" value="TAMPILKAN DAFTAR PEMILIK USAHA" style="shape=parallelogram;perimeter=parallelogramPerimeter;whiteSpace=wrap;html=1;fixedSize=1;" vertex="1" parent="1">
          <mxGeometry x="320" y="900" width="160" height="60" as="geometry" />
        </mxCell>
      </root>
    </mxGraphModel>
  </diagram>
</mxfile>
